<svg xmlns="http://www.w3.org/2000/svg" viewBox="0 0 160 186.7"><defs><style>.cls-1{fill:#42ac41;}.cls-2{fill:#f9bb00;}.cls-3{fill:#0093d7;}.cls-4{fill:#e60012;}.cls-5{fill:#eb6118;}</style></defs><g id="レイヤー_2" data-name="レイヤー 2"><g id="レイヤー_1-2" data-name="レイヤー 1"><path class="cls-1" d="M40,48.9V26.7a8.9,8.9,0,0,0-17.8,0V48.9a8.9,8.9,0,0,0,17.8,0Z"/><path class="cls-2" d="M71.1,71.1v44.4a8.9,8.9,0,0,0,17.8,0V71.1a8.9,8.9,0,0,0-17.8,0Z"/><path class="cls-2" d="M137.8,48.9V26.7a8.9,8.9,0,0,0-17.8,0V48.9a8.9,8.9,0,0,0,17.8,0Z"/><circle class="cls-1" cx="151.1" cy="71.1" r="8.9"/><circle class="cls-2" cx="8.9" cy="71.1" r="8.9"/><path class="cls-3" d="M120,71.1V93.3a8.9,8.9,0,0,0,17.8,0V71.1a8.9,8.9,0,0,0-17.8,0Z"/><path class="cls-4" d="M88.9,48.9V26.7a8.9,8.9,0,0,0-17.8,0V48.9a8.9,8.9,0,0,0,17.8,0Z"/><path class="cls-4" d="M22.2,71.1V93.3a8.9,8.9,0,1,0,17.8,0V71.1a8.9,8.9,0,0,0-17.8,0Z"/><path class="cls-3" d="M55.6,62.2a8.92,8.92,0,0,1,8.9,8.9v40a8.9,8.9,0,1,1-17.8,0v-40A8.86,8.86,0,0,1,55.6,62.2Z"/><path class="cls-5" d="M104.4,62.2a8.92,8.92,0,0,1,8.9,8.9v40a8.9,8.9,0,1,1-17.8,0v-40A9,9,0,0,1,104.4,62.2Z"/><path class="cls-1" d="M113.3,8.9v40a8.9,8.9,0,1,1-17.8,0V8.9a8.9,8.9,0,1,1,17.8,0Z"/><path class="cls-5" d="M64.4,8.9v40a8.9,8.9,0,0,1-17.8,0V8.9A8.92,8.92,0,0,1,55.5,0,8.79,8.79,0,0,1,64.4,8.9Z"/><circle class="cls-3" cx="8.9" cy="48.9" r="8.9"/><circle class="cls-4" cx="151.1" cy="48.9" r="8.9"/><path d="M20.5,165.5v12.1c0,4.9-2.9,9-8.9,9s-8.9-4.1-8.9-9v-22c0-4.9,2.9-9,8.9-9,5.7,0,8.9,3.5,8.9,10.4,0,1.1-.9,2-2.8,2s-2.7-.9-2.8-2v-.9c-.1-1.8-.2-4.9-3.3-4.9s-3.3,3.1-3.3,4.8v21.3c0,1.4.3,4.8,3.3,4.8,2.2,0,3.5-1.3,3.5-4.8v-7.2a.54.54,0,0,0-.5-.5H12.7c-1,0-1.7-.8-1.7-2.3s.8-2.3,1.7-2.3H20C20.2,165.1,20.5,165.3,20.5,165.5Zm20.3,2.6c0-.2,0-.4.2-.5a8,8,0,0,0,3.7-7v-4.3c0-4.9-2.9-9-8.9-9H27.4a.54.54,0,0,0-.5.5v36.8c0,1.1.9,2,2.7,2s2.7-.9,2.7-2V170.1a.54.54,0,0,1,.5-.5h2.7a.37.37,0,0,1,.4.4L39,184.6c.2,1.1,1.1,2,3,2s3-1,2.8-2Zm-1.7-7.8c0,1.4-.3,4.8-3.3,4.8h-3a.54.54,0,0,1-.5-.5V152.4a.54.54,0,0,1,.5-.5h3c3,0,3.3,3.3,3.3,4.8Zm20.5-13.7c-6,0-8.9,4.1-8.9,9v29c0,1.1.9,2,2.8,2s2.8-.9,2.8-2V172a.54.54,0,0,1,.5-.5h5.7a.54.54,0,0,1,.5.5v12.6c0,1.1.9,2,2.8,2s2.8-.9,2.8-2v-29C68.5,150.7,65.5,146.6,59.6,146.6Zm3.3,20.3a.54.54,0,0,1-.5.5H56.7a.54.54,0,0,1-.5-.5V156c0-1.7.3-4.8,3.3-4.8s3.3,3.1,3.3,4.8l.1,10.9Zm30.7-18.2v36c0,1.1-.8,2-2.4,2a2.4,2.4,0,0,1-2.6-2l-6.8-19.8a.26.26,0,0,0-.5.1v19.7c0,1.1-.9,2-2.7,2s-2.7-.9-2.7-2V148.8c0-1.1.8-2,2.4-2,2,0,2.3,1.1,2.6,2.1L87.7,169a.26.26,0,0,0,.5-.1V148.8c0-1.1.9-2,2.7-2C92.7,146.6,93.6,147.5,93.6,148.7Zm44.1.9c0,1.5-.8,2.3-1.7,2.3h-4.6a.54.54,0,0,0-.5.5v32.2c0,1.1-.9,2-2.8,2s-2.8-.9-2.8-2V152.4a.54.54,0,0,0-.5-.5h-4.6c-1,0-1.7-.8-1.7-2.3s.8-2.3,1.7-2.3h15.6C136.9,147.3,137.7,148.1,137.7,149.6Zm10.7-3c-6,0-8.9,4.1-8.9,9v29c0,1.1.9,2,2.8,2s2.8-.9,2.8-2V172a.54.54,0,0,1,.5-.5h5.7a.54.54,0,0,1,.5.5v12.6c0,1.1.9,2,2.8,2s2.8-.9,2.8-2v-29C157.3,150.7,154.4,146.6,148.4,146.6Zm3.4,20.3a.54.54,0,0,1-.5.5h-5.7a.54.54,0,0,1-.5-.5V156c0-1.7.3-4.8,3.3-4.8s3.3,3.1,3.3,4.8l.1,10.9Zm-37.3-.4c3.2,3.5,3,7.9,3,10.1,0,6.7-3.4,10-8.9,10-3.5,0-6.4-1.4-7.8-4.4a16.39,16.39,0,0,1-1.1-6.8c0-1.1.9-2,2.8-2s2.8.9,2.8,2v1.8c.1,1.6.2,4.9,3.3,4.9h0c3,0,3.3-3.1,3.3-4.9,0-2.6.1-5-1.5-6.7a12.91,12.91,0,0,0-3.6-2.5,16.79,16.79,0,0,1-4.3-3.1c-2.6-2.8-2.9-6.7-2.9-8.4,0-6.1,3.1-9.8,8.9-9.8s8.9,3.5,8.8,10.4c0,1.1-.9,2-2.8,2s-2.7-.9-2.8-2v-.9c-.1-1.8-.2-4.9-3.3-4.9s-3.3,3.3-3.3,4.8c0,1.2.1,3.6,1.4,5a12.27,12.27,0,0,0,3.3,2.3A12.75,12.75,0,0,1,114.5,166.5Z"/></g></g></svg>