<?xml version="1.0" encoding="UTF-8" standalone="no"?>
<!-- Created with Inkscape (http://www.inkscape.org/) -->

<svg
   version="1.1"
   width="550"
   height="500"
   id="tsw"
   sodipodi:docname="Tokyo_special_wards_map_ja.svg"
   inkscape:version="1.3.2 (091e20e, 2023-11-25, custom)"
   xmlns:inkscape="http://www.inkscape.org/namespaces/inkscape"
   xmlns:sodipodi="http://sodipodi.sourceforge.net/DTD/sodipodi-0.dtd"
   xmlns="http://www.w3.org/2000/svg"
   xmlns:svg="http://www.w3.org/2000/svg">
  <sodipodi:namedview
     id="namedview1"
     pagecolor="#ffffff"
     bordercolor="#666666"
     borderopacity="1.0"
     inkscape:showpageshadow="2"
     inkscape:pageopacity="0.0"
     inkscape:pagecheckerboard="0"
     inkscape:deskcolor="#d1d1d1"
     inkscape:zoom="1.546"
     inkscape:cx="275.22639"
     inkscape:cy="250"
     inkscape:window-width="1920"
     inkscape:window-height="1001"
     inkscape:window-x="-9"
     inkscape:window-y="-9"
     inkscape:window-maximized="1"
     inkscape:current-layer="layer1" />
  <defs
     id="defs3258" />
  <metadata
     id="metadata3261" />
  <g
     transform="translate(-108.28125,-73.5)"
     id="layer1">
    <path
       d="m 108.28125,73.5 0,454.59375 0,45.40625 550,0 0,-500 -550,0 z"
       id="rect6930"
       style="opacity:0.95999995;color:#000000;fill:#5f8dd3;fill-opacity:1;fill-rule:nonzero;stroke:none;stroke-width:1;marker:none;visibility:visible;display:inline;overflow:visible;enable-background:accumulate" />
    <path
       d="m 108.28125,73.5 0,24.09375 0,18.625 0,9.21875 0,18.125 0,10.4375 0,223.5 0,196 347.875,0 1.4375,-3.34375 -54.8125,-35.375 -24.75,-1.75 -8.84375,7.0625 -8.84375,-5.3125 -12.375,8.84375 -19.4375,3.53125 -7.0625,-12.375 7.0625,-14.125 L 298.46875,504.75 279.03125,462.3125 263.125,457 l -15.90625,-12.375 -33.59375,-26.5 -4.96875,-1.15625 0,-259.8125 3.21875,6.40625 7.0625,-1.78125 1.75,-19.4375 0,-1.75 17.6875,-17.6875 5.3125,-10.625 7.0625,0 15.90625,-5.28125 51.28125,3.53125 1.75,0 12.375,10.59375 19.4375,1.78125 5.3125,5.3125 17.6875,0 0,12.375 12.375,-10.625 10.59375,0 7.09375,-12.375 -14.15625,-24.75 7.0625,-7.0625 17.6875,-7.0625 17.6875,17.65625 22.96875,1.78125 22.96875,-5.3125 7.09375,-5.3125 0,-5.28125 5.28125,5.28125 -5.28125,17.6875 7.0625,12.375 15.90625,-12.375 12.375,7.0625 12.375,10.625 3.53125,-7.0625 21.21875,-3.5625 3.53125,5.3125 -7.0625,10.625 7.0625,10.59375 22.96875,-3.53125 0,7.0625 -15.90625,10.625 -3.53125,7.0625 14.15625,28.28125 1.75,1.75 14.15625,14.15625 -5.3125,22.96875 5.3125,10.625 21.21875,22.96875 3.53125,15.90625 -15.90625,23 -28.28125,8.84375 -1.78125,10.59375 1.78125,1.75 1.75,26.53125 -5.3125,17.6875 -14.125,8.84375 5.3125,1.75 -7.09375,8.84375 1.78125,14.15625 21.21875,5.28125 5.28125,-7.0625 7.09375,15.90625 56.5625,-40.65625 -30.0625,-24.75 1.78125,0 15.90625,-17.6875 22.15625,-5.09375 0,-1.40625 -2.71875,-4.09375 -21.21875,5.3125 5.3125,-10.625 3.53125,3.53125 14.15625,-12.375 0.9375,1.6875 0,-233.15625 -550,0 z"
       id="rect6930-0"
       style="opacity:0.95999995;color:#000000;fill:#e3e2db;fill-opacity:1;fill-rule:nonzero;stroke:none;stroke-width:1;marker:none;visibility:visible;display:inline;overflow:visible;enable-background:accumulate" />
    <path
       d="m 507.08244,269.5983 15.90984,12.37433 -1.76776,63.63937 7.07104,0 -1.76776,24.74865 14.14208,5.30328 17.67761,-1.76776 14.14209,-8.83881 5.30328,-17.6776 -1.76776,-26.5164 -1.76776,-1.76776 1.76776,-10.60657 28.28415,-8.8388 15.90984,-22.98088 -3.53552,-15.90985 -21.21312,-22.98088 -5.30328,-10.60656 5.30328,-22.9809 -14.14207,-14.14208 -1.76776,-1.76776 -12.37433,1.76776 7.07105,7.07104 -12.37433,14.14209 -5.30328,0 -7.07104,42.42625 -10.60657,-3.53552 -10.60656,5.30328 -12.37432,-14.14208 -12.37432,7.07104 8.8388,8.8388 z"
       id="a13123"
       style="fill:#c6e9af;fill-opacity:1;stroke:#b4b4b4;stroke-width:0.5;stroke-opacity:1" />
    <path
       d="m 478.79827,174.13923 h 7.07104 l 3.53552,7.07105 1.76776,-10.60657 7.07105,7.07105 3.53552,-10.60657 7.07104,1.76776 10.60656,-10.60656 17.6776,5.30328 -17.6776,-35.35521 1.76776,-15.90984 -12.37432,-7.07104 -15.90985,12.37432 -7.07104,-12.37432 5.30328,-17.677606 -5.30328,-5.303281 v 5.303281 l -7.07104,5.303281 -22.98088,5.303282 -22.98089,-1.76776 -17.6776,-17.677605 -17.67761,7.071042 -7.07105,7.071041 14.1421,24.748645 -7.07105,12.37433 h -10.60657 l -12.37432,10.60656 -3.53552,14.14208 14.14208,8.8388 17.67761,-5.30328 v 7.07104 l -14.14209,10.60657 12.37433,7.07104 37.12297,1.76776 8.8388,5.30328 -3.53552,7.07104 5.30328,8.8388 30.05193,3.53553 7.07104,-7.07105 -8.8388,-19.44536 z"
       id="a13121"
       style="fill:#ffaaaa;fill-opacity:1;stroke:#b4b4b4;stroke-width:0.5;stroke-opacity:1" />
    <path
       d="m 141.156,239.54638 28.28417,15.90984 1.76776,-14.14208 8.8388,3.53552 14.14208,-14.14208 26.51642,-5.30328 3.53552,-8.83881 h 7.07104 l 15.90986,15.90985 h 21.21313 l 15.90984,-14.14209 8.8388,5.30328 1.76776,-3.53552 1.76776,-10.60656 v -7.07105 l -10.60656,-1.76776 1.76776,-22.98088 -7.07104,-15.90985 -35.35521,-5.30328 -10.60658,3.53552 -14.14208,-17.6776 -1.76776,19.44536 -7.07104,1.76776 -3.53552,-7.07104 -22.9809,3.53552 8.8388,-8.8388 -10.60656,-5.30328 v -1.76776 h -3.53552 -7.07104 l -8.8388,12.37432 -15.90985,8.8388 v 3.53552 l -10.60656,3.53552 8.8388,19.44537 z"
       id="a13120"
       style="fill:#c6e9af;fill-opacity:1;stroke:#b4b4b4;stroke-width:0.5;stroke-opacity:1" />
    <path
       d="m 353.28727,190.04908 -8.8388,-15.90985 -12.37432,-10.60656 -5.30328,-28.28416 -8.8388,1.76776 -8.8388,-7.07104 8.8388,-19.44537 -51.26505,-3.53552 -15.90985,5.30328 h -7.07104 l -5.30328,10.60656 -17.67762,17.67761 v 1.76776 l 14.14208,17.6776 10.60658,-3.53552 35.35521,5.30328 7.07104,15.90985 -1.76776,22.98088 10.60656,1.76776 v 7.07105 l 15.90985,-7.07105 8.8388,1.76776 7.07104,10.60657 8.8388,-15.90985 h 12.37432 z"
       id="a13119"
       style="fill:#ffeeaa;fill-opacity:1;stroke:#b4b4b4;stroke-width:0.5;stroke-opacity:1" />
    <path
       d="m 515.92124,241.31414 12.37432,14.14208 10.60656,-5.30328 10.60657,3.53552 7.07104,-42.42625 h 5.30328 l 12.37433,-14.14209 -7.07105,-7.07104 12.37433,-1.76776 -14.14209,-28.28417 3.53552,-7.07104 15.90985,-10.60656 v -7.07104 l -22.98089,3.53552 -7.07104,-10.60657 7.07104,-10.60656 -3.53552,-5.30328 -21.21313,3.53552 -3.53552,7.07104 -12.37432,-10.60656 -1.76776,15.90984 17.6776,35.35521 -17.6776,-5.30328 -10.60656,10.60656 -7.07104,-1.76776 -3.53552,10.60657 -7.07105,-7.07105 -1.76776,10.60657 -3.53552,-7.07105 h -7.07104 l -1.76776,8.83881 8.8388,19.44536 z"
       id="a13122"
       style="fill:#ffeeaa;fill-opacity:1;stroke:#b4b4b4;stroke-width:0.5;stroke-opacity:1" />
    <path
       d="m 408.08786,223.63653 22.98088,8.83881 15.90984,-10.60657 24.74865,5.30329 7.07104,-17.67761 -30.05193,-3.53553 -5.30328,-8.8388 3.53552,-7.07104 -8.8388,-5.30328 -37.12297,-1.76776 -8.83881,1.76776 -1.76776,5.30328 24.74866,15.90984 3.53552,5.30329 -7.07104,3.53552 -5.30328,5.30328 z"
       id="a13118"
       style="fill:#c6e9af;fill-opacity:1;stroke:#b4b4b4;stroke-width:0.5;stroke-opacity:1" />
    <path
       d="m 393.94577,216.56549 12.37433,3.53552 5.30328,-5.30328 7.07104,-3.53552 -3.53552,-5.30329 -24.74866,-15.90984 1.76776,-5.30328 8.83881,-1.76776 -12.37433,-7.07104 14.14209,-10.60657 v -7.07104 l -17.67761,5.30328 -14.14208,-8.8388 3.53552,-14.14208 v -12.37433 h -17.6776 l -5.30329,-5.30328 -19.44536,-1.76776 -12.37432,-10.60656 h -1.76776 l -8.8388,19.44537 8.8388,7.07104 8.8388,-1.76776 5.30328,28.28416 12.37432,10.60656 8.8388,15.90985 -3.53552,8.8388 7.07105,8.8388 3.53552,-7.07104 7.07104,-1.76776 1.76776,7.07104 10.60656,-1.76776 z"
       id="a13117"
       style="fill:#ffb380;fill-opacity:1;stroke:#b4b4b4;stroke-width:0.5;stroke-opacity:1" />
    <path
       d="m 393.94577,216.56549 -14.14209,-12.37433 -10.60656,1.76776 -1.76776,-7.07104 -7.07104,1.76776 -3.53552,7.07104 -7.07105,-8.8388 h -12.37432 l -8.8388,15.90985 -7.07104,-10.60657 -8.8388,-1.76776 -15.90985,7.07105 -1.76776,10.60656 -1.76776,3.53552 v 1.76777 l 8.8388,12.37432 28.28417,-1.76776 1.76776,15.90984 21.21312,1.76776 -3.53552,-1.76776 -1.76776,-7.07104 8.83881,-3.53552 v -10.60656 l 15.90984,1.76776 v -7.07104 l 10.60656,-10.60657 7.07104,5.30328 z"
       id="a13116"
       style="fill:#ffaaaa;fill-opacity:1;stroke:#b4b4b4;stroke-width:0.5;stroke-opacity:1" />
    <path
       d="m 275.50582,313.79231 -7.07104,-17.6776 10.60656,-7.07104 v -5.30328 l -8.8388,-1.76776 -3.53552,-22.98089 h -8.83881 l -26.51642,-12.37432 -10.60656,-21.21312 -26.51642,5.30328 -14.14208,14.14208 -8.8388,-3.53552 -1.76776,14.14208 12.37432,10.60656 -12.37432,19.44537 10.60656,7.07104 -5.30328,3.53552 5.30328,8.8388 15.90984,5.30328 3.53552,14.14209 h 10.60658 l -7.07106,-10.60657 17.67762,8.83881 19.44538,8.8388 31.81969,-10.60656 z"
       id="a13115"
       style="fill:#ffb380;fill-opacity:1;stroke:#b4b4b4;stroke-width:0.5;stroke-opacity:1" />
    <path
       d="m 279.04134,289.04367 -10.60656,7.07104 7.07104,17.6776 26.5164,-26.5164 5.30329,-24.74865 8.8388,-7.07104 -15.90985,1.76776 -1.76776,-3.53552 -3.53552,-8.8388 -7.07104,-1.76776 5.30328,-17.6776 v -1.76777 l -8.8388,-5.30328 -15.90984,14.14209 h -21.21313 l -15.90986,-15.90985 h -7.07104 l -3.53552,8.83881 10.60656,21.21312 26.51642,12.37432 h 8.83881 l 3.53552,22.98089 8.8388,1.76776 z"
       id="a13114"
       style="fill:#ffeeaa;fill-opacity:1;stroke:#b4b4b4;stroke-width:0.5;stroke-opacity:1" />
    <path
       d="m 289.6479,335.00544 15.90984,3.53552 30.05193,31.81969 12.37432,1.76776 h 1.76776 l 5.30329,-8.83881 v -15.90984 l -14.14209,-3.53552 -3.53552,-12.37432 8.8388,-12.37432 -5.30328,-1.76777 3.53552,-10.60656 -12.37432,-12.37432 -8.8388,-1.76776 -15.90984,12.37432 -3.53553,-5.30328 -1.76776,-12.37432 -26.5164,26.5164 -3.53552,7.07105 h 10.60656 z"
       id="a13113"
       style="fill:#ffaaaa;fill-opacity:1;stroke:#b4b4b4;stroke-width:0.5;stroke-opacity:1" />
    <path
       d="m 174.74345,403.9481 v 7.07104 h 8.8388 l 30.05194,7.07105 33.58746,26.5164 15.90985,12.37432 3.53552,-5.30328 -7.07105,-3.53552 10.60657,-7.07104 12.37432,1.76776 10.60656,10.60656 3.53552,-14.14208 -3.53552,-12.37432 h -19.44536 l 5.30328,-15.90985 -7.07104,-22.98088 24.74864,10.60656 8.8388,-22.98089 -3.53552,-21.21313 -12.37432,-19.44536 -7.07104,-14.14208 H 271.9703 l -31.81969,10.60656 -19.44538,-8.8388 -17.67762,-8.83881 7.07106,10.60657 h -10.60658 l -3.53552,-14.14209 -15.90984,-5.30328 h -3.53552 -8.8388 l 3.53552,12.37432 -7.07104,1.76777 8.8388,7.07104 v 5.30328 l -3.53552,3.53552 8.8388,21.21312 v 8.8388 h -7.07104 l -3.53552,8.83881 12.37432,22.98089 z"
       id="a13112"
       style="fill:#c6e9af;fill-opacity:1;stroke:#b4b4b4;stroke-width:0.5;stroke-opacity:1" />
    <path
       d="m 423.9977,448.14211 -8.8388,5.30328 -7.07104,-3.53552 v 15.90985 h -8.83881 v -7.07105 l -10.60657,-1.76776 -22.98088,5.30329 -3.53552,-12.37433 -12.37433,5.30328 -5.30328,-14.14208 -15.90984,-1.76776 -10.60656,-10.60656 -14.14209,-8.8388 v 12.37432 l -7.07104,1.76776 v 5.30328 l -3.53552,14.14208 -10.60656,-10.60656 -12.37432,-1.76776 -10.60657,7.07104 7.07105,3.53552 -3.53552,5.30328 15.90984,5.30329 19.44536,42.42624 30.05193,15.90985 -7.07104,14.14208 7.07104,12.37432 19.44536,-3.53552 12.37433,-8.8388 8.8388,5.30328 8.8388,-7.07104 24.74865,1.76776 54.80058,35.35522 14.14208,-28.28418 -31.81969,-51.26505 -19.44536,1.76776 -10.60656,14.14208 -7.07105,-7.07104 -7.07104,3.53552 -14.14209,-12.37432 v -7.07104 h -28.28417 l 54.80059,-5.30328 7.07104,-7.07104 v 7.07104 h 21.21312 l 5.30328,-3.53552 -7.07104,-10.60656 -17.6776,5.30328 10.60656,-12.37433 z m -38.89074,40.65849 7.07104,7.07104 8.83881,-3.53552 -5.30328,-10.60656 z m 15.90985,0 12.37433,10.60656 10.60656,-15.90984 h -21.21313 z"
       id="a13111"
       style="fill:#ffeeaa;fill-opacity:1;stroke:#b4b4b4;stroke-width:0.5;stroke-opacity:1" />
    <path
       d="m 317.93207,428.69675 v -10.60656 l 10.60656,-14.14209 -10.60656,-3.53552 26.5164,-7.07104 -3.53552,-14.14209 7.07104,-7.07104 -12.37432,-1.76776 -30.05193,-31.81969 -15.90984,-3.53552 12.37432,19.44536 3.53552,21.21313 -8.8388,22.98089 -24.74864,-10.60656 7.07104,22.98088 -5.30328,15.90985 h 19.44536 l 3.53552,12.37432 v -5.30328 l 7.07104,-1.76776 v -12.37432 z"
       id="a13110"
       style="fill:#ffb380;fill-opacity:1;stroke:#b4b4b4;stroke-width:0.5;stroke-opacity:1" />
    <path
       d="m 328.53863,439.30331 15.90984,1.76776 5.30328,14.14208 12.37433,-5.30328 3.53552,12.37433 22.98088,-5.30329 10.60657,1.76776 v 7.07105 h 8.83881 v -15.90985 l 7.07104,3.53552 8.8388,-5.30328 -19.44536,-33.58745 V 395.1093 l -3.53553,5.30328 -30.05193,1.76776 -7.07104,-14.14208 -5.30328,-5.30329 h -10.60657 l 1.76776,-10.60656 h -1.76776 l -7.07104,7.07104 3.53552,14.14209 -26.5164,7.07104 10.60656,3.53552 -10.60656,14.14209 v 10.60656 z m 95.45907,-31.81969 -3.53552,-5.30328 -3.53552,-5.30328 h -1.76776 l 3.53552,12.37432 z"
       id="a13109"
       style="fill:#c6e9af;fill-opacity:1;stroke:#b4b4b4;stroke-width:0.5;stroke-opacity:1" />
    <path
       d="m 423.9977,366.82513 17.6776,28.28417 7.07104,-3.53552 8.83881,12.37432 5.30328,-7.07104 -3.53552,-15.90985 8.8388,-1.76776 v -5.30328 l 37.12297,-7.07104 v 15.90984 l -17.67761,5.30329 26.51641,-3.53553 1.76776,-33.58745 5.30328,-5.30328 1.76776,-63.63937 -15.90984,-12.37433 -22.98089,-8.8388 1.76776,24.74865 -10.60656,1.76776 -3.53552,8.8388 -26.51641,-3.53552 3.53552,7.07104 -7.07104,17.6776 3.53552,31.81969 z m 63.63937,8.8388 v 8.8388 l 5.30328,-1.76776 v -5.30328 l 10.60657,-3.53552 h -10.60657 l 1.76776,-3.53552 z m 7.07104,14.14209 1.76776,17.6776 5.30329,-1.76776 5.30328,14.14209 7.07104,-31.81969 z m -60.10385,1.76776 -14.14208,10.60656 3.53552,5.30328 17.6776,30.05193 7.07104,-12.37432 -15.90984,-24.74865 5.30328,-3.53552 z m 5.30328,7.07104 12.37433,19.44537 3.53552,-7.07105 -10.60657,-15.90984 z"
       id="a13108"
       style="fill:#ffaaaa;fill-opacity:1;stroke:#b4b4b4;stroke-width:0.5;stroke-opacity:1" />
    <path
       d="m 443.44306,285.50815 1.76776,7.07104 26.51641,3.53552 3.53552,-8.8388 10.60656,-1.76776 -1.76776,-24.74865 22.98089,8.8388 5.30328,-12.37432 -8.8388,-8.8388 12.37432,-7.07104 -30.05193,-38.89074 -7.07104,7.07105 -7.07104,17.67761 -3.53552,15.90984 -24.74865,40.65849 z"
       id="a13107"
       style="fill:#ffb380;fill-opacity:1;stroke:#b4b4b4;stroke-width:0.5;stroke-opacity:1" />
    <path
       d="m 376.26816,315.56007 12.37432,8.83881 14.14209,1.76776 15.90985,-21.21313 -3.53552,-10.60656 19.44536,-14.14208 -15.90984,-14.14209 -3.53552,8.83881 -30.05194,-5.30329 -19.44536,22.98089 v 12.37432 z"
       id="a13101"
       style="fill:#ffb380;fill-opacity:1;stroke:#b4b4b4;stroke-width:0.5;stroke-opacity:1" />
    <path
       d="m 434.60426,280.20487 8.8388,3.53552 24.74865,-40.65849 3.53552,-15.90984 -24.74865,-5.30329 -15.90984,10.60657 -22.98088,-8.83881 v 14.14209 l 7.07104,8.8388 -5.30328,-1.76776 3.53552,14.14208 7.07104,1.76776 -1.76776,5.30328 z"
       id="a13106"
       style="fill:#ffaaaa;fill-opacity:1;stroke:#b4b4b4;stroke-width:0.5;stroke-opacity:1" />
    <path
       d="m 411.62338,354.4508 12.37432,12.37433 21.21312,-17.67761 -3.53552,-31.81969 7.07104,-17.6776 -3.53552,-7.07104 -1.76776,-7.07104 v -1.76776 l -8.8388,-3.53552 -19.44536,14.14208 3.53552,10.60656 -15.90985,21.21313 5.30329,5.30328 -3.53552,10.60656 8.8388,7.07104 z"
       id="a13102"
       style="fill:#c6e9af;fill-opacity:1;stroke:#b4b4b4;stroke-width:0.5;stroke-opacity:1" />
    <path
       d="m 337.37743,331.46992 3.53552,12.37432 14.14209,3.53552 v 15.90984 l -5.30329,8.83881 -1.76776,10.60656 h 10.60657 l 5.30328,5.30329 7.07104,14.14208 30.05193,-1.76776 3.53553,-5.30328 v -10.60657 l -8.83881,-1.76776 1.76776,-7.07104 8.83881,3.53552 -1.76776,-14.14209 1.76776,-10.60656 h 5.30328 l 1.76776,-5.30328 -8.8388,-7.07104 3.53552,-10.60656 -5.30329,-5.30328 -14.14209,-1.76776 -12.37432,-8.83881 -10.60656,-10.60656 -14.14209,3.53552 -5.30328,10.60657 z m 83.08475,70.71042 14.14208,-10.60656 -7.07104,-10.60657 -7.07104,5.30329 5.30328,-3.53553 3.53552,5.30329 -12.37432,8.8388 z"
       id="a13103"
       style="fill:#ffeeaa;fill-opacity:1;stroke:#b4b4b4;stroke-width:0.5;stroke-opacity:1" />
    <path
       d="m 385.10696,269.5983 -3.53552,-8.8388 -14.14208,1.76776 -14.14209,-8.8388 -21.21312,-1.76776 -1.76776,-15.90984 -28.28417,1.76776 -8.8388,-12.37432 -5.30328,17.6776 7.07104,1.76776 3.53552,8.8388 1.76776,3.53552 15.90985,-1.76776 -8.8388,7.07104 -5.30329,24.74865 1.76776,12.37432 3.53553,5.30328 15.90984,-12.37432 8.8388,1.76776 12.37432,12.37432 -3.53552,10.60656 5.30328,1.76777 5.30328,-10.60657 14.14209,-3.53552 v -12.37432 z"
       id="a13104"
       style="fill:#c6e9af;fill-opacity:1;stroke:#b4b4b4;stroke-width:0.5;stroke-opacity:1" />
    <path
       d="m 415.1589,246.61742 -7.07104,-8.8388 v -14.14209 l -1.76776,-3.53552 -12.37433,-3.53552 -3.53553,3.53552 -7.07104,-5.30328 -10.60656,10.60657 v 7.07104 l -15.90984,-1.76776 v 10.60656 l -8.83881,3.53552 1.76776,7.07104 3.53552,1.76776 14.14209,8.8388 14.14208,-1.76776 3.53552,8.8388 30.05194,5.30329 3.53552,-8.83881 1.76776,-5.30328 -7.07104,-1.76776 -3.53552,-14.14208 z"
       id="a13105"
       style="fill:#ffeeaa;fill-opacity:1;stroke:#b4b4b4;stroke-width:0.5;stroke-opacity:1" />
    <path
       d="m 391.07365,360.53008 c 33.51178,33.99052 33.99052,33.99052 33.99052,33.99052"
       id="path3109"
       style="fill:none;stroke:#000000;stroke-width:1.95680654;stroke-linecap:butt;stroke-linejoin:miter;stroke-miterlimit:4;stroke-opacity:1;stroke-dasharray:none" />
    <path
       d="M 477.45483,348.92373 C 437.73025,417.25 437.73025,417.25 437.73025,417.25"
       id="path3879"
       style="fill:none;stroke:#000000;stroke-width:2;stroke-linecap:butt;stroke-linejoin:miter;stroke-miterlimit:4;stroke-opacity:1;stroke-dasharray:none" />
    <g
       transform="translate(35.391541,28.212402)"
       id="g3232">
      <rect
         width="149.55"
         height="5.6567383"
         x="87.889709"
         y="524.63086"
         id="rect5494-8"
         style="fill:#000000" />
      <g
         transform="matrix(1.1877484,0,0,1.1877484,56.497679,-68.328795)"
         id="text5496-8"
         style="font-size:11.90643215px;text-anchor:middle;fill:#000000;font-family:Helvetica">
        <path
           d="m 79.103055,496.25339 -1.046463,0 0,-6.6683 c -0.25193,0.2403 -0.582341,0.4806 -0.991234,0.7209 -0.408898,0.2403 -0.776129,0.42052 -1.101694,0.54067 l 0,-1.01158 c 0.585243,-0.27518 1.096847,-0.6085 1.534814,-0.99996 0.437961,-0.39145 0.748024,-0.77127 0.93019,-1.13948 l 0.674387,0 z"
           id="path8997"
           style="font-size:11.90643215px;text-anchor:middle;fill:#000000;font-family:Helvetica" />
        <path
           d="m 81.788979,492.05009 c 0,-1.0077 0.103677,-1.81871 0.311033,-2.43303 0.207353,-0.6143 0.515479,-1.08812 0.924376,-1.42144 0.408894,-0.33331 0.923405,-0.49997 1.543534,-0.49998 0.45734,10e-6 0.858484,0.0921 1.203433,0.27615 0.344941,0.18411 0.629811,0.4496 0.854612,0.79647 0.224791,0.3469 0.401139,0.76936 0.529046,1.26739 0.127895,0.49804 0.191846,1.16952 0.191852,2.01444 -6e-6,0.99996 -0.102715,1.80709 -0.308126,2.4214 -0.205422,0.61432 -0.512579,1.0891 -0.921469,1.42436 -0.408901,0.33525 -0.92535,0.50288 -1.549348,0.50288 -0.82167,0 -1.466989,-0.29456 -1.935958,-0.88368 -0.561991,-0.70927 -0.842985,-1.86425 -0.842985,-3.46496 z m 1.075532,0 c -10e-7,1.39916 0.163751,2.33032 0.491257,2.79348 0.327502,0.46316 0.731553,0.69473 1.212154,0.69473 0.480594,0 0.884645,-0.23254 1.212154,-0.69764 0.327499,-0.46509 0.491251,-1.39528 0.491256,-2.79057 -5e-6,-1.40303 -0.163757,-2.33516 -0.491256,-2.79638 -0.327509,-0.46121 -0.735435,-0.69182 -1.223781,-0.69183 -0.480601,1e-5 -0.864304,0.20349 -1.151111,0.61044 -0.36045,0.51936 -0.540674,1.47862 -0.540673,2.87777 z"
           id="path8999"
           style="font-size:11.90643215px;text-anchor:middle;fill:#000000;font-family:Helvetica" />
        <path
           d="m 88.713081,496.25339 0,-8.52287 1.046464,0 0,4.86024 2.476631,-2.51151 1.354589,0 -2.360357,2.29059 2.598718,3.88355 -1.290638,0 -2.040605,-3.15683 -0.738338,0.70926 0,2.44757 z"
           id="path9001"
           style="font-size:11.90643215px;text-anchor:middle;fill:#000000;font-family:Helvetica" />
        <path
           d="m 94.660483,496.25339 0,-6.17414 0.936004,0 0,0.86624 c 0.193788,-0.30231 0.451528,-0.54551 0.77322,-0.72962 0.321688,-0.18409 0.68795,-0.27614 1.098787,-0.27615 0.45734,10e-6 0.832322,0.095 1.124949,0.28487 0.292617,0.18992 0.499003,0.45541 0.619158,0.79648 0.488344,-0.72089 1.123969,-1.08134 1.906889,-1.08135 0.61237,10e-6 1.08328,0.16957 1.41273,0.5087 0.32943,0.33914 0.49415,0.8614 0.49416,1.56679 l 0,4.23818 -1.04065,0 0,-3.88936 c -1e-5,-0.41858 -0.0339,-0.71992 -0.10174,-0.90403 -0.0678,-0.18409 -0.19089,-0.33234 -0.36917,-0.44475 -0.17829,-0.11239 -0.38759,-0.16859 -0.62788,-0.16859 -0.43409,0 -0.79454,0.14438 -1.081343,0.43312 -0.286814,0.28875 -0.430219,0.75094 -0.430213,1.38656 l 0,3.58705 -1.046464,0 0,-4.01145 c -4e-6,-0.46509 -0.08527,-0.81391 -0.255802,-1.04646 -0.170539,-0.23254 -0.449596,-0.34882 -0.837171,-0.34882 -0.294563,0 -0.566837,0.0775 -0.816823,0.23255 -0.249991,0.15503 -0.431184,0.38177 -0.54358,0.6802 -0.1124,0.29844 -0.168599,0.72865 -0.168597,1.29064 l 0,3.20334 z"
           id="path9003"
           style="font-size:11.90643215px;text-anchor:middle;fill:#000000;font-family:Helvetica" />
      </g>
    </g>
    <path
       d="m 428.30762,150.53516 q 3.69531,-3.26563 4.03906,-8.25 l 1.97656,0.42968 q 0.34375,0.34375 -0.25781,0.42969 -0.0859,1.11719 -0.60156,2.92188 1.20312,1.46093 3.78125,2.92187 v -8.42187 h -4.64063 v 0.77343 h -1.71875 v -8.16406 h 13.57813 v 7.90625 h -1.71875 v -0.51562 h -3.78125 v 2.92187 h 6.1875 v 1.63281 h -6.1875 v 4.29688 q 0.77343,0.17187 2.14843,0.17187 h 6.27344 l -0.34375,1.63282 h -6.44531 q -4.55469,0 -7.73438,-3.52344 -1.375,2.92187 -3.26562,4.46875 z m 14.4375,-15.72657 h -10.14063 v 4.125 h 10.14063 z m 26.29687,14.17969 v 1.89063 h -19.07812 v -1.89063 h 10.3125 q 1.80468,-4.89844 2.57812,-9.88281 l 2.40625,0.77344 q 0.34375,0.34375 -0.25781,0.42968 -0.94531,4.38282 -2.75,8.67969 z m -13.75,-9.45312 q 1.28906,2.49218 2.23438,7.21875 l -1.97657,0.60156 q -1.11718,-4.72656 -2.0625,-7.13281 z m 3.09375,-6.875 h 1.89063 q 0.85937,0.17187 0.0859,0.6875 v 2.92187 h 7.5625 v 1.89063 h -16.84375 v -1.89063 h 7.30469 z"
       id="adachi"
       style="font-size:22px;line-height:125%;font-family:'VL PGothic'"
       aria-label="足立" />
    <path
       d="m 416.68542,222.50595 q 3.95313,-0.0859 3.95313,-3.52344 v -2.32031 h 1.63281 q 0.6875,0.0859 0.0859,0.51563 v 1.97656 q 0,4.64062 -5.15625,5.24219 z m 16.92969,-0.17187 q 0.6875,0 0.85938,-0.85938 l 0.25781,-1.28906 1.71875,0.51562 -0.17188,1.11719 q -0.34375,2.14844 -1.63281,2.14844 h -2.57812 q -1.63282,0 -1.63282,-1.54688 v -5.92968 h 1.63282 q 0.6875,0.0859 0.0859,0.51562 v 4.64063 q 0,0.6875 0.60157,0.6875 z m -6.53125,-5.58594 q 0.6875,0.0859 0.0859,0.51562 v 6.27344 h -1.71875 v -6.78906 z m -5.07031,-0.94531 q -1.63281,0 -1.63281,-1.54688 v -1.71875 h -2.83594 v -1.63281 h 8.07812 v -1.80469 h 1.63282 q 0.6875,0.0859 0.0859,0.51563 v 1.28906 h 8.16407 v 1.63281 h -13.40625 v 0.94531 q 0,0.6875 0.60156,0.6875 h 11 v 1.63282 z m 1.89062,-11.17188 q 0.6875,0.0859 0.0859,0.51563 v 1.54687 h 4.89844 v -2.0625 h 1.63281 q 0.6875,0.0859 0.0859,0.51563 v 1.54687 h 5.32812 v 1.63281 h -5.32812 v 1.375 h -1.71875 v -1.375 h -4.89844 v 1.54688 h -1.71875 v -1.54688 h -5.07031 v -1.63281 h 5.07031 v -2.0625 z m 17.70313,1.375 h 1.89062 q 0.85938,0.17188 0.0859,0.6875 v 9.36719 q 0,4.98437 -2.92187,7.64844 l -1.63282,-1.28907 q 2.57813,-2.14843 2.57813,-6.44531 z m 12.97656,-0.17187 h 1.89063 q 0.85937,0.17187 0.0859,0.6875 v 17.1875 h -1.97656 z m -4.64062,1.20312 q 0.85937,0.17188 0.0859,0.6875 v 13.83594 h -1.97656 V 207.0372 Z"
       id="arakawa"
       style="font-size:22px;line-height:125%;font-family:'VL PGothic'"
       aria-label="荒川" />
    <path
       d="m 276.40271,140.52441 q 0.42969,2.66407 1.54687,4.55469 1.11719,-1.63281 1.54688,-4.55469 z m -3.35156,9.10938 q 2.40625,-1.11719 3.78125,-2.92188 -1.63282,-3.17968 -2.0625,-6.1875 h -0.94532 v 1.80469 q 0,6.78906 -2.92187,9.19531 l -1.03125,-1.71875 q 2.23437,-2.23437 2.23437,-7.39062 v -9.02344 h 10.22657 v 1.63281 h -8.50782 v 3.86719 h 5.92969 l 0.42969,-0.42969 1.46094,1.03125 q 0.34375,0.25782 -0.25782,0.60157 -0.6875,3.69531 -2.32031,6.53125 0.94531,1.375 3.78125,2.75 l -0.6875,1.80468 q -2.0625,-0.85937 -4.21094,-3.09375 -1.54687,1.97657 -4.21093,3.35157 z m -6.1875,2.14844 v -8.9375 q -1.28907,3.00781 -2.75,4.21093 l -0.85938,-1.54687 q 2.83594,-3.26563 3.60938,-7.5625 h -3.09375 v -1.63281 h 3.09375 v -4.46875 h 1.63281 q 0.6875,0.0859 0.0859,0.51562 v 3.95313 h 2.83593 v 1.63281 h -2.83593 v 3.00781 q 1.80468,1.03125 2.83593,1.97656 l -0.77343,1.71875 q -1.03125,-0.77343 -2.0625,-1.71875 v 8.85157 z m 36.17968,-18.64844 q 0.6875,0.94531 -0.60156,0.51562 -1.71875,0.25782 -3.78125,0.42969 l -0.60156,1.375 h 6.53125 v 1.375 h -3.52344 q 1.20313,1.46094 4.125,2.75 l -0.77344,1.375 q -1.28906,-0.42969 -2.40625,-1.375 v 2.49219 h -7.13281 v -2.40625 q -1.03125,0.94531 -2.40625,1.71875 l -1.03125,-1.28906 q 3.09375,-1.71875 4.125,-3.26563 h -3.00781 v -1.375 h 3.78125 l 0.51562,-1.20312 -3.69531,0.17187 -0.42969,-1.375 q 4.64063,-0.0859 9.71094,-1.03125 z m -18.5625,12.46094 q 2.75,-2.92188 3.52344,-7.99219 h -2.66406 v -1.63281 h 2.75 v -4.03907 h 1.63281 q 0.6875,0.0859 0.0859,0.51563 v 3.52344 h 2.0625 v 1.63281 h -2.0625 v 2.75 q 0.85937,0.42969 2.32031,2.0625 l -0.94531,1.80469 q -0.60156,-0.85938 -1.375,-1.71875 v 9.10937 h -1.71875 v -8.59375 q -0.77344,2.14844 -2.23438,3.95313 z m 12.46094,3.78125 v 0.6875 h -1.20312 v -4.29688 h 5.5 v 3.60938 z m 5.41406,0.42968 q 0.34375,0 0.34375,-0.34375 v -4.89843 h -8.42187 v 6.96093 h -1.46094 v -8.33593 h 11.34375 v 6.875 q 0,1.375 -1.11719,1.375 h -1.63281 l -0.34375,-1.63282 z m -1.80468,-10.39843 h -4.21094 v 1.63281 h 4.21094 z m -0.51563,7.39062 h -3.09375 v 1.54688 h 3.09375 z m -0.85937,-9.96875 h -1.71875 q -0.51563,0.85938 -1.11719,1.54688 h 4.29687 z"
       id="itabashi"
       style="font-size:22px;line-height:125%;font-family:'VL PGothic'"
       aria-label="板橋" />
    <path
       d="m 536.37793,282.14832 q -0.60156,1.54687 -3.26563,6.35937 0.0859,1.11719 -0.77343,0.25781 l -1.375,-1.20312 q 2.66406,-3.69531 3.86718,-6.53125 z m 0.94531,-7.82032 v -1.89062 h 11.85938 v 1.89062 h -5.07032 v 11.6875 h 6.35938 v 1.89063 H 535.8623 v -1.89063 h 6.27344 V 274.328 Z m -1.97656,0.60157 q -1.375,-1.20313 -3.17969,-2.32032 l 1.20313,-1.54687 q 1.97656,1.03125 3.26562,2.23437 z m -0.85938,5.07031 q -1.11718,-1.03125 -3.17968,-2.49219 l 1.28906,-1.54687 q 2.0625,1.20312 3.17969,2.32031 z m 33.42969,2.75 v -1.03125 h -10.22656 v 0.77344 q 0,4.125 -2.75,7.21875 l -1.63281,-1.54688 q 2.40625,-2.57812 2.40625,-6.27344 v -6.70312 h 14.17968 v 7.5625 z m -14.09375,-11.6875 h 17.44531 v 1.89062 h -17.44531 z m 3.86719,5.75781 v 3.26563 h 10.22656 v -3.26563 z m 19.85156,-5.5 h 1.89063 q 0.85937,0.17188 0.0859,0.6875 v 9.36719 q 0,4.98437 -2.92187,7.64844 l -1.63281,-1.28907 q 2.57812,-2.14843 2.57812,-6.44531 z m 12.97656,-0.17187 h 1.89063 q 0.85937,0.17187 0.0859,0.6875 v 17.1875 h -1.97657 z m -4.64062,1.20312 q 0.85937,0.17188 0.0859,0.6875 v 13.83594 h -1.97657 v -14.52344 z"
       id="edogawa"
       style="font-size:22px;line-height:125%;font-family:'VL PGothic'"
       aria-label="江戸川" />
    <path
       d="m 328.03256,507.40866 q 7.90625,-2.75 8.33594,-10.57031 h -7.73438 v -1.89063 h 7.90625 v -4.55468 h 1.89063 q 0.85937,0.17187 0.0859,0.6875 v 3.86718 h 8.25 v 1.89063 h -8.07813 q 1.80469,7.13281 8.76563,10.14062 l -1.11719,2.0625 q -6.01563,-2.75 -8.50781,-9.28125 -1.46094,7.04688 -9.02344,9.71094 z m 30.67969,-6.96094 H 353.556 v 5.24219 h 5.15625 z m 0,-1.63281 V 493.7446 H 353.556 v 5.07031 z m 1.71875,-5.07031 v 5.07031 h 5.24219 v -5.07031 z m 5.24219,11.94531 v -5.24219 H 360.431 v 5.24219 z m 1.97656,2.66406 h -1.97656 v -1.03125 H 353.556 v 1.28907 h -1.97656 v -16.5 h 16.07031 z"
       id="ota"
       style="font-size:22px;line-height:125%;font-family:'VL PGothic'"
       aria-label="大田" />
    <path
       d="m 512.23822,200.62592 q 2.57813,-0.85938 3.69531,-2.66407 h -3.69531 z m 0,1.11718 h 0.6875 l -0.6875,-0.6875 z m 4.38281,-1.97656 q -1.28906,1.28906 -2.83593,1.97656 h 6.35937 q -1.63281,-1.03125 -3.52344,-1.97656 z m -2.32031,-14.35156 q 0.6875,0.0859 0.0859,0.51562 v 1.28907 h 4.21094 v -1.80469 h 1.63281 q 0.6875,0.0859 0.0859,0.51562 v 1.28907 h 5.32812 v 1.375 h -5.32812 v 1.03125 h 2.49218 v 5.92968 h -8.25 l -1.03125,1.03125 h 12.03125 l -0.6875,6.27344 q -0.25781,2.32031 -2.0625,2.32031 h -2.49218 l -0.51563,-1.63281 h 2.40625 q 0.85938,0 0.94531,-0.85937 l 0.51563,-4.72657 h -6.01563 l -0.25781,0.60157 q 1.89063,0.77343 3.86719,1.89062 l -0.85938,1.28906 h 1.375 v 1.375 h -9.53906 v 1.11719 h -1.71875 v -4.89844 q -1.46094,1.03125 -3.09375,1.71875 l -0.94531,-1.54687 q 3.60937,-1.46094 6.01562,-3.95313 h -2.40625 v -5.92968 h 2.57813 v -1.03125 h -5.5 v -1.375 h 5.5 v -1.80469 z m -2.75,6.61719 h 9.79688 v -1.03125 h -9.79688 z m 0,2.14843 h 9.79688 v -1.11718 h -9.79688 z m 2.83594,-4.55468 h 4.21094 v -1.03125 h -4.21094 z m 15.98437,2.23437 q -0.60156,0.6875 -1.20312,1.11719 l -0.94531,-1.54688 q 3.17968,-2.75 4.64062,-6.53125 l 1.46094,0.34375 q 0.6875,0.25782 0,0.51563 l -0.17188,0.34375 q 2.49219,1.375 3.69532,2.83594 l -1.11719,1.375 q -1.20313,-1.20313 -3.26563,-2.83594 -1.03125,1.97656 -2.49218,3.69531 h 1.80468 v -2.0625 h 1.375 q 0.6875,0.0859 0.0859,0.51563 v 1.54687 h 2.23438 v 7.39063 h -4.64063 v 3.4375 l 3.00781,-0.77344 q -0.17187,-0.34375 -0.6875,-1.28906 l 1.375,-0.60157 q 1.46094,1.97657 2.32032,4.03907 l -1.63282,0.6875 q -0.42968,-0.94532 -0.6875,-1.54688 l -5.5,1.71875 q -0.0859,0.60156 -0.42968,0.25781 l -0.6875,-1.89062 1.46093,-0.34375 z m 6.44532,-0.25781 q 2.23437,-2.92188 3.09375,-6.70313 l 1.89062,0.6875 q 0.34375,0.34375 -0.25781,0.42969 l -0.6875,1.80469 h 7.39062 v 1.63281 h -8.07812 q -1.28906,2.57813 -2.14844,3.4375 z m -4.98438,5.58594 h 3.17969 v -1.63282 h -3.17969 z m 0,-3.00782 h 3.17969 v -1.63281 h -3.17969 z m 11.85938,10.65625 h -1.71875 v -10.3125 h -1.71875 v 7.99219 h -1.71875 v -9.625 h 3.4375 v -2.92187 h 1.63281 q 0.6875,0.0859 0.0859,0.51562 v 2.40625 h 3.78125 v 8.59375 q 0,1.20313 -1.11719,1.20313 h -1.20313 l -0.25781,-1.63282 h 0.51563 q 0.34375,0 0.34375,-0.34375 v -6.1875 h -2.0625 z"
       id="katsushika"
       style="font-size:22px;line-height:125%;font-family:'VL PGothic'"
       aria-label="葛飾" />
    <path
       d="m 345.64258,167.63379 q 3.52344,-1.20313 6.35937,-2.66406 v -4.98438 h -5.67187 v -1.89062 h 5.67187 v -5.24219 h 1.63282 q 0.85937,0.17187 0.0859,0.6875 v 17.875 h -1.71875 v -4.46875 q -2.23437,1.28906 -4.89843,2.49219 -0.0859,0.77343 -0.42969,0.34375 z m 12.46094,-8.25 q 2.32031,-1.375 4.38281,-3.35156 l 1.28906,1.71875 q 0.34375,0.60156 -0.51562,0.42968 -2.40625,1.71875 -5.15625,3.00782 v 7.39062 q 0,0.6875 0.60156,0.6875 h 2.92187 q 0.77344,0 0.85938,-0.51562 l 0.42969,-2.23438 1.97656,0.42969 -0.51563,2.57812 q -0.34375,1.63282 -1.80468,1.63282 h -4.64063 q -1.54687,0 -1.54687,-1.63282 v -16.67187 h 1.63281 q 0.85937,0.17187 0.0859,0.6875 z"
       id="kita"
       style="font-size:22px;line-height:125%;font-family:'VL PGothic'"
       aria-label="北" />
    <path
       d="m 461.82611,337.88214 q -0.60156,1.54688 -3.26562,6.35938 0.0859,1.11718 -0.77344,0.25781 l -1.375,-1.20313 q 2.66406,-3.69531 3.86719,-6.53125 z m 0.94531,-7.82031 v -1.89063 h 11.85938 v 1.89063 h -5.07031 v 11.6875 h 6.35937 v 1.89062 h -14.60937 v -1.89062 h 6.27343 v -11.6875 z m -1.97656,0.60156 q -1.375,-1.20312 -3.17969,-2.32031 l 1.20313,-1.54688 q 1.97656,1.03125 3.26562,2.23438 z m -0.85937,5.07031 q -1.11719,-1.03125 -3.17969,-2.49218 l 1.28906,-1.54688 q 2.0625,1.20313 3.17969,2.32031 z m 28.96093,-6.35937 v 1.46094 h 5.84375 v 8.07812 h -1.71875 v -0.51562 h -3.52343 q 3.60937,3.00781 8.33593,4.21093 l -0.85937,2.0625 q -3.95313,-1.03125 -8.07813,-4.89843 v 5.67187 h -1.71875 v -5.32812 q -3.00781,3.26562 -7.73437,4.8125 l -0.85938,-1.80469 q 5.15625,-1.63281 8.16407,-4.72656 h -3.69532 v 0.77343 h -1.71875 v -8.33593 h 5.84375 v -1.46094 h -8.50781 v -1.63281 h 8.50781 v -1.97657 h 1.63282 q 0.6875,0.0859 0.0859,0.51563 v 1.46094 h 8.33594 v 1.63281 z m 0,7.64844 h 4.125 v -1.71875 h -4.125 z m 0,-3.09375 h 4.125 v -1.71875 h -4.125 z m -5.84375,3.09375 h 4.125 v -1.71875 h -4.125 z m 0,-3.09375 h 4.125 v -1.71875 h -4.125 z"
       id="koto"
       style="font-size:22px;line-height:125%;font-family:'VL PGothic'"
       aria-label="江東" />
    <path
       d="m 213.47656,206.35156 q -2.75,-1.54687 -4.38281,-4.125 v 5.24219 h -1.46094 v -4.98438 q -1.28906,2.49219 -4.98437,4.55469 l -0.94532,-1.71875 q 3.52344,-1.54687 5.67188,-4.8125 h -3.60938 v -7.21875 h 3.86719 v -1.54687 h -4.64062 v -1.375 h 4.64062 v -2.66407 h 1.375 q 0.6875,0.0859 0.0859,0.51563 v 2.14844 h 4.72656 v 1.375 h -4.72656 v 1.54687 h 3.95312 v 7.21875 h -3.60937 q 1.375,2.32031 4.8125,4.21094 z m -12.20312,-2.23437 q -0.25782,-1.97657 -0.77344,-3.78125 l 1.375,-0.51563 q 0.60156,1.28906 0.94531,3.69531 z m -6.53125,1.11718 q 0.6875,-2.66406 0.77343,-5.15625 l 1.63282,0.17188 q 0.25781,0.25781 -0.17188,0.51562 0,2.57813 -0.85937,5.07032 z m 6.44531,-8.16406 -0.94531,-1.46094 1.20312,-0.77343 q 1.20313,1.63281 2.14844,3.52343 l -1.375,0.85938 -0.51563,-0.94531 -1.97656,0.17187 v 9.10938 h -1.71875 v -8.9375 l -2.92187,0.17187 q -0.0859,0.60156 -0.42969,0.25781 l -0.25781,-1.80468 h 1.28906 l 1.80469,-2.14844 -2.92188,-2.40625 1.03125,-1.28906 0.60156,0.42968 2.32032,-3.86718 1.375,0.85937 q 0.34375,0.42969 -0.34375,0.42969 l -2.23438,3.4375 1.20313,1.03125 2.32031,-3.17969 1.20312,0.85938 q 0.60157,0.51562 -0.25781,0.51562 l -4.29687,5.32813 z m 10.39844,-2.40625 h -2.49219 v 1.63281 h 2.49219 z m 0,3.00781 h -2.49219 v 1.46094 h 2.49219 z m -3.95313,0 h -2.40625 v 1.46094 h 2.40625 z m -2.40625,-3.00781 v 1.63281 h 2.40625 v -1.63281 z m 24.57813,10.22656 q -0.42969,-1.71875 -1.375,-3.17968 l 1.63281,-0.60157 q 1.03125,1.375 1.63281,3.17969 z m -3.78125,0.60157 q -0.34375,-1.89063 -1.03125,-3.4375 L 226.625,201.625 q 0.85937,1.375 1.20312,3.35156 z m -5.58594,-3.35157 q -0.34375,2.57813 -1.54688,4.46875 L 217.17187,205.75 q 1.11719,-1.71875 1.54688,-4.03906 z m 14.60937,-3.4375 -0.51562,6.61719 q -0.17188,2.0625 -1.63281,2.0625 h -2.40625 L 230.0625,205.75 h 2.14844 q 0.51562,0 0.60156,-0.6875 l 0.42969,-4.72656 h -12.46094 v 0.60156 h -1.71875 v -12.28906 h 14.78125 v 1.63281 h -6.44531 v 1.63281 h 5.32812 v 1.63281 h -5.32812 v 1.63282 h 5.41406 v 1.63281 h -5.41406 v 1.89062 z m -9.36718,-3.52343 v -1.63282 h -4.89844 v 1.63282 z m 0,3.52343 v -1.89062 h -4.89844 v 1.89062 z m -2.32032,3.35157 q 0.51563,1.71875 0.42969,3.78125 l -1.89062,0.34375 q 0.0859,-2.32032 -0.25782,-3.95313 z m 2.32032,-10.14063 v -1.63281 h -4.89844 v 1.63281 z"
       id="nerima"
       style="font-size:22px;line-height:125%;font-family:'VL PGothic'"
       aria-label="練馬" />
    <path
       d="m 364.42255,423.42084 h -7.5625 v 0.60156 h -1.71875 v -7.99219 h 11 v 7.82031 h -1.71875 z m -7.5625,-1.63282 h 7.5625 v -4.125 h -7.5625 z m 10.91406,11.34375 h -4.125 v 1.54688 h -1.71875 v -9.10938 h 7.5625 v 8.85157 h -1.71875 z m -4.125,-5.92968 v 4.29687 h 4.125 v -4.29687 z m -9.79688,0 v 4.29687 h 4.125 v -4.29687 z m 4.125,5.92968 h -4.125 v 1.54688 h -1.71875 v -9.10938 h 7.5625 v 8.85157 h -1.71875 z M 375.7663,416.4599 h 1.89062 q 0.85938,0.17187 0.0859,0.6875 v 9.36719 q 0,4.98437 -2.92188,7.64843 l -1.63281,-1.28906 q 2.57813,-2.14844 2.57813,-6.44531 z m 12.97656,-0.17188 h 1.89062 q 0.85938,0.17188 0.0859,0.6875 v 17.1875 h -1.97656 z m -4.64063,1.20313 q 0.85938,0.17187 0.0859,0.6875 v 13.83594 h -1.97656 v -14.52344 z"
       id="shinagawa"
       style="font-size:22px;line-height:125%;font-family:'VL PGothic'"
       aria-label="品川" />
    <path
       d="m 304.52136,310.71689 q 0.6875,0.0859 0.0859,0.51562 v 2.66407 h 4.29687 v 1.63281 h -4.29687 v 2.75 h 5.67187 v 1.63281 H 296.3573 v -1.63281 h 2.23437 v -5.75781 h 1.63282 q 0.6875,0.0859 0.0859,0.51562 v 5.24219 h 2.57813 v -7.5625 z m -0.60156,12.375 q 2.23437,-1.28906 3.4375,-2.83594 l 1.46094,1.375 q 0.0859,0.42969 -0.42969,0.25781 -1.375,1.46094 -3.4375,2.66407 z m -10.14063,-11.77344 q 1.80469,0.85938 3.09375,2.23438 l -1.20312,1.71875 q -1.28906,-1.28907 -3.00781,-2.32032 z m -1.28906,5.24219 q 1.63281,0.60156 3.17969,2.14844 l -1.20313,1.71875 q -1.375,-1.28907 -3.09375,-2.14844 z m 6.01563,4.38281 q 2.14843,0.6875 3.69531,2.14844 l -1.20313,1.63281 q -1.46093,-1.28906 -3.52343,-2.23437 z m -7.5625,7.82031 q 1.97656,-2.92187 3.17968,-6.53125 l 1.46094,0.85938 q -1.20312,3.60937 -2.49219,6.53125 0.17188,0.6875 -0.25781,0.42969 z m 4.98437,-0.6875 q 3.00781,-0.94531 5.58594,-2.75 l 0.6875,1.54688 q -2.23438,1.63281 -4.98438,2.92187 -0.0859,0.6875 -0.42968,0.34375 z m 9.02344,-2.75 q 2.40625,0.94532 4.98437,2.75 l -1.11718,1.80469 q -2.49219,-1.89062 -4.8125,-3.00781 z m 20.79687,-14.09375 q 2.40625,2.83594 5.5,4.21094 l -0.94531,1.63281 q -2.83594,-1.03125 -5.75781,-4.8125 z m -11.6875,4.89844 q 3.09375,-2.23437 4.98438,-4.89844 l 1.375,1.03125 q 0.51562,0.42969 -0.34375,0.60157 -1.80469,2.66406 -4.72656,4.72656 z m -1.20312,6.35938 q 6.44531,-2.66407 9.10937,-8.59375 l 1.63282,0.51562 q 0.60156,0.17188 -0.25782,0.6875 3.26563,4.8125 8.76563,6.96094 l -1.11719,1.80469 q -1.63281,-0.77344 -2.83594,-1.63282 v 7.5625 h -1.71875 v -0.77343 h -7.47656 v 0.94531 h -1.71875 v -7.64844 q -1.375,1.03125 -3.35156,1.89063 z m 9.625,-6.10157 q -1.63281,3.17969 -4.98438,5.67188 h 10.39844 q -3.60937,-2.40625 -5.41406,-5.67188 z m -3.52344,11 h 7.47656 v -3.69531 h -7.47656 z"
       id="shibuya"
       style="font-size:22px;line-height:125%;font-family:'VL PGothic'"
       aria-label="渋谷" />
    <path
       d="m 322.59167,285.76376 q 3.52344,-1.89062 3.52344,-6.44531 v -9.88281 l 1.80469,0.34375 4.64062,-1.46094 1.28907,1.71875 q 0.17187,0.51563 -0.60157,0.17188 l -5.41406,1.03125 v 3.69531 h 6.78906 v 1.63281 h -2.57812 v 10.74219 h -1.71875 v -10.74219 h -2.49219 v 3.26563 q 0,5.07031 -4.29687,7.5625 z m -1.63281,1.63282 h -1.71875 v -5.15625 q -1.375,2.23437 -3.00781,3.52343 l -1.28906,-1.54687 q 2.40625,-1.71875 4.03906,-4.29688 h -3.60938 v -1.63281 h 3.86719 v -1.89062 h -4.38281 v -1.63282 h 6.01562 l 0.94532,-3.09375 h -6.35938 v -1.63281 h 3.78125 v -2.40625 h 1.63281 q 0.6875,0.0859 0.0859,0.51563 v 1.89062 h 3.78125 v 1.63281 h -1.11719 l -1.20312,3.09375 h 2.75 v 1.63282 h -4.21094 v 1.89062 h 3.78125 v 1.63281 h -3.78125 v 0.77344 q 1.20313,0.34375 3.35156,1.80469 l -1.03125,1.71875 q -1.20312,-1.20313 -2.32031,-1.89063 z m -3.4375,-12.80469 q -0.34375,-1.20313 -0.94531,-2.32031 l 1.63281,-0.51563 q 0.6875,1.11719 1.03125,2.32031 z m 25.69531,0.42969 v -1.63282 h 11 v 1.63282 h -4.29687 q -0.25781,0.94531 -0.51563,1.80468 h 5.07032 v 10.3125 h -1.71875 v -0.6875 h -7.13282 v 0.6875 h -1.71875 v -10.3125 h 3.78125 q 0.17188,-1.11718 0.34375,-1.80468 z m 4.29688,-5.67188 h 8.50781 v 3.60938 h -1.71875 v -1.97657 h -15.125 v 2.57813 h -1.71875 v -4.21094 h 8.33594 v -1.89062 h 1.63281 q 0.6875,0.0859 0.0859,0.51562 z m -4.64063,3.35156 q 0.34375,0.34375 -0.25781,0.42969 -0.51562,1.80469 -1.46094,3.52344 v 10.48437 h -1.71875 v -8.07812 q -0.85937,1.20312 -1.80468,2.14844 l -1.03125,-1.71875 q 2.92187,-2.66407 4.64062,-7.64844 z m 2.75,5.75782 v 2.23437 h 7.13282 v -2.23437 z m 0,3.86718 v 2.49219 h 7.13282 v -2.49219 z"
       id="shinjuku"
       style="font-size:22px;line-height:125%;font-family:'VL PGothic'"
       aria-label="新宿" />
    <path
       d="m 210.8913,278.90521 q -2.92188,3.86719 -7.04688,5.32813 l -0.77344,-1.71875 q 3.86719,-1.20313 6.70313,-5.15625 l 1.54687,1.28906 q 0.25782,0.42969 -0.42968,0.25781 z m -8.50782,-1.46094 q 4.38282,-1.54687 6.70313,-5.24218 l 1.63281,1.375 q 0.17188,0.42968 -0.42969,0.25781 -2.83593,3.69531 -7.13281,5.32812 z m -4.8125,3.69532 q -1.20312,3.26562 -3.26562,5.32812 l -1.28906,-1.71875 q 3.00781,-2.75 4.46875,-7.64844 h -3.69532 v -1.63281 h 3.78125 v -4.55469 h 1.63282 q 0.6875,0.0859 0.0859,0.51563 v 4.03906 h 3.35157 v 1.63281 h -3.35157 v 2.66407 q 1.97657,1.03125 3.60938,2.40625 l -0.94531,1.71875 q -1.11719,-1.11719 -2.66407,-2.23438 v 9.10938 h -1.71875 z m 14.52344,2.32031 q 0.77344,0.77344 -0.25781,0.60156 -3.95313,4.89844 -9.625,6.35938 l -0.51563,-1.89063 q 5.32813,-1.20312 9.19532,-6.1875 z m 16.84375,1.97656 q 1.28906,-2.83594 1.80469,-6.35937 l 2.0625,0.60156 q 0.34375,0.34375 -0.25781,0.42969 -0.34375,2.75 -1.80469,6.01562 z m -9.88281,0.0859 q -0.51563,-2.92188 -1.80469,-5.32813 l 1.71875,-0.85937 q 1.375,2.14844 1.89063,5.58594 z m 7.21875,-10.14063 1.28906,-4.46875 2.0625,0.6875 q 0.34375,0.34375 -0.25781,0.42969 l -1.28906,3.35156 h 5.58593 v 1.63282 h -5.75781 v 11.25781 h 6.44531 v 1.63281 h -18.90625 v -1.63281 h 6.27344 v -11.25781 h -5.58594 v -1.63282 h 5.41407 q -0.85938,-1.63281 -1.97657,-2.92187 l 1.63282,-1.11719 q 1.28906,1.11719 2.14843,3.09375 l -1.46093,0.94531 z m -2.83594,1.63282 v 11.25781 h 2.75 v -11.25781 z"
       id="suginami"
       style="font-size:22px;line-height:125%;font-family:'VL PGothic'"
       aria-label="杉並" />
    <path
       d="m 483.27136,257.88876 q 1.375,1.20313 2.32031,2.66407 l -1.80468,0.6875 q -1.03125,-1.54688 -2.0625,-2.83594 z m -12.03125,0.51563 q -0.60156,1.63281 -2.0625,3.00781 l -1.46094,-0.94531 q 1.28907,-1.20313 1.97657,-2.75 z m 6.10156,-2.40625 h 8.59375 v 1.375 h -18.47656 v -1.375 h 8.42188 v -1.11719 h -6.70313 v -1.03125 h 6.70313 v -1.11719 h -3.09375 -3.09375 v -5.41406 h 14.00781 v 5.41406 h -6.35938 v 1.11719 h 7.04688 v 1.03125 h -7.04688 z m -6.1875,-6.44531 h 4.72657 v -1.20313 h -4.72657 z m -3.78125,16.32812 v -1.375 h 8.33594 v -1.54687 h -5.58594 v -1.375 h 5.58594 v -1.71875 h 1.63281 q 0.6875,0.0859 0.0859,0.51562 v 1.20313 h 5.75781 v 1.375 h -5.75781 v 1.54687 h 8.42188 v 1.375 z m 9.96875,-16.32812 h 4.89844 v -1.20313 h -4.89844 z m -6.1875,2.14843 h 4.72657 v -1.11718 h -4.72657 z m 6.1875,0 h 4.89844 v -1.11718 h -4.89844 z m -4.21093,9.02344 q -0.0859,-1.375 -0.34375,-2.49219 l 1.71875,-0.34375 q 0.42968,1.20313 0.42968,2.49219 z m 5.5,-0.0859 q -0.42969,-1.03125 -0.94532,-2.32031 l 1.63282,-0.34375 q 0.77343,1.20313 1.11718,2.23438 z m 19.07812,-3.60937 h -5.15625 v 5.24219 h 5.15625 z m 0,-1.63281 v -5.07032 h -5.15625 v 5.07032 z m 1.71875,-5.07032 v 5.07032 h 5.24219 v -5.07032 z m 5.24219,11.94532 v -5.24219 h -5.24219 v 5.24219 z m 1.97656,2.66406 h -1.97656 v -1.03125 h -12.11719 v 1.28906 h -1.97656 v -16.5 h 16.07031 z"
       id="sumida"
       style="font-size:22px;line-height:125%;font-family:'VL PGothic'"
       aria-label="墨田" />
    <path
       d="m 215.49286,378.24115 v 1.89062 h -13.57813 v 1.46094 h -1.71875 V 369.6474 h -3.17968 v -1.89063 h 3.17968 v -4.8125 h 1.63282 q 0.6875,0.0859 0.0859,0.51563 v 4.29687 h 3.69532 v -5.32812 h 1.63281 q 0.6875,0.0859 0.0859,0.51562 v 4.8125 h 4.21093 v -4.98437 h 1.63282 q 0.6875,0.0859 0.0859,0.51562 v 4.46875 h 3.17969 v 1.89063 h -3.17969 v 6.44531 h -1.71875 v -1.03125 h -4.21093 v 1.46094 h -1.71875 v -6.875 h -3.69532 v 8.59375 z m -3.95313,-4.8125 v -3.78125 h -4.21093 v 3.78125 z m 16.32813,-0.94531 h -5.15625 v 5.24218 h 5.15625 z m 0,-1.63282 v -5.07031 h -5.15625 v 5.07031 z m 1.71875,-5.07031 v 5.07031 h 5.24219 v -5.07031 z m 5.24219,11.94531 v -5.24218 h -5.24219 v 5.24218 z m 1.97656,2.66407 h -1.97656 v -1.03125 h -12.11719 v 1.28906 h -1.97656 v -16.5 h 16.07031 z m 17.10156,-17.70313 q 2.40625,2.83594 5.5,4.21094 l -0.94531,1.63281 q -2.83594,-1.03125 -5.75781,-4.8125 z m -11.6875,4.89844 q 3.09375,-2.23438 4.98438,-4.89844 l 1.375,1.03125 q 0.51562,0.42969 -0.34375,0.60156 -1.80469,2.66407 -4.72657,4.72657 z m -1.20312,6.35937 q 6.44531,-2.66406 9.10937,-8.59375 l 1.63281,0.51563 q 0.60157,0.17187 -0.25781,0.6875 3.26563,4.8125 8.76563,6.96094 l -1.11719,1.80468 q -1.63281,-0.77343 -2.83594,-1.63281 v 7.5625 h -1.71875 v -0.77344 h -7.47656 v 0.94532 h -1.71875 v -7.64844 q -1.375,1.03125 -3.35156,1.89062 z m 9.625,-6.10156 q -1.63282,3.17969 -4.98438,5.67188 h 10.39844 q -3.60938,-2.40625 -5.41406,-5.67188 z m -3.52344,11 h 7.47656 v -3.69531 h -7.47656 z"
       id="setagaya"
       style="font-size:22px;line-height:125%;font-family:'VL PGothic'"
       aria-label="世田谷" />
    <path
       d="m 434.47449,247.25595 -1.375,-1.375 -14.95313,0.60156 q -0.0859,0.6875 -0.42969,0.34375 l -0.42968,-2.23437 h 3.69531 q 2.0625,-3.4375 3.86719,-6.875 l 1.80468,0.6875 q 0.51563,0.42969 -0.34375,0.60156 -1.71875,2.83594 -3.60937,5.58594 l 9.19531,-0.0859 q -1.89062,-1.80469 -3.4375,-2.92187 l 1.28906,-1.11719 q 3.35157,2.40625 6.1875,5.32812 z m -3.35157,9.625 v -0.94531 h -9.19531 v 1.11719 h -1.71875 v -8.59375 h 12.63281 v 8.42187 z m -9.19531,-2.57812 h 9.19531 v -4.21094 h -9.19531 z m 27.58594,-12.97657 v 1.46094 h 5.84375 v 8.07813 h -1.71875 v -0.51563 h -3.52344 q 3.60938,3.00781 8.33594,4.21094 l -0.85938,2.0625 q -3.95312,-1.03125 -8.07812,-4.89844 v 5.67188 h -1.71875 v -5.32813 q -3.00781,3.26563 -7.73438,4.8125 l -0.85937,-1.80469 q 5.15625,-1.63281 8.16406,-4.72656 h -3.69531 v 0.77344 h -1.71875 v -8.33594 h 5.84375 v -1.46094 h -8.50781 v -1.63281 h 8.50781 v -1.97656 h 1.63281 q 0.6875,0.0859 0.0859,0.51562 v 1.46094 h 8.33594 v 1.63281 z m 0,7.64844 h 4.125 v -1.71875 h -4.125 z m 0,-3.09375 h 4.125 v -1.71875 h -4.125 z m -5.84375,3.09375 h 4.125 v -1.71875 h -4.125 z m 0,-3.09375 h 4.125 v -1.71875 h -4.125 z"
       id="taito"
       style="font-size:22px;line-height:125%;font-family:'VL PGothic'"
       aria-label="台東" />
    <path
       d="m 412.70886,334.14658 v -5.58594 h -5.58594 v 5.58594 z m 0,-11.17188 h 1.63281 q 0.6875,0.0859 0.0859,0.51563 v 3.4375 h 7.47656 v 9.45312 h -1.71875 v -0.60156 h -5.75781 v 6.44531 h -1.71875 v -6.44531 h -5.58594 v 1.11719 h -1.71875 v -9.96875 h 7.30469 z m 7.47656,11.17188 v -5.58594 h -5.75781 v 5.58594 z m 24.40625,7.90625 q -6.44531,-1.63282 -8.59375,-6.44532 -1.11718,5.07032 -9.10937,6.70313 l -0.60156,-2.14844 q 7.73437,-1.20312 8.25,-6.01562 h -8.07813 v -1.63282 h 2.75 v -6.10156 h 5.5 v -3.69531 h 1.63281 q 0.94532,0 0.0859,0.51562 v 3.17969 h 5.58594 v 6.10156 h 2.92187 v 1.63282 h -7.99218 q 2.0625,4.55468 8.42187,5.92968 z m -8.16406,-9.53907 h 3.86719 v -4.46875 h -3.86719 z m -5.5,-4.46875 v 4.46875 h 3.78125 v -4.46875 z"
       id="chuo"
       style="font-size:22px;line-height:125%;font-family:'VL PGothic'"
       aria-label="中央" />
    <path
       d="m 369.9198,290.29501 q 9.36719,0.0859 13.57812,-1.54687 l 1.20313,1.63281 q 0.34375,0.51563 -0.60156,0.34375 -1.97657,0.51563 -5.41407,1.03125 v 4.64063 h 8.33594 v 1.89062 h -8.33594 v 8.76563 h -1.97656 v -8.76563 h -8.33594 v -1.89062 h 8.33594 v -4.46875 q -3.17969,0.17187 -6.27344,0.17187 z m 31.96875,-1.63281 q 0.94531,0.0859 0.0859,0.6875 l 0.25781,4.8125 6.35937,-0.6875 0.25782,1.63281 -6.35938,0.6875 q 0.60156,5.92969 3.35156,8.07813 1.28907,1.03125 1.46094,-0.51563 l 0.17188,-1.54687 1.80468,0.94531 -0.25781,1.28906 q -0.77344,3.86719 -3.86719,1.71875 -3.86718,-2.66406 -4.46875,-9.79687 l -4.8125,0.42969 -0.0859,-1.63282 4.64062,-0.42968 -0.25781,-5.84375 z m -12.03125,8.59375 q 3.09375,-2.49219 4.55469,-8.9375 l 1.89062,0.60156 q 0.51563,0.34375 -0.25781,0.42969 -0.25781,1.63281 -1.54688,4.64063 1.03125,0.17187 0.25782,0.60156 v 12.28906 h -1.71875 v -10.22656 q -1.11719,1.63281 -1.89063,2.23437 z m 14.69531,-7.99219 q 1.63281,1.20313 2.49219,2.23438 l -1.54688,1.46094 q -0.77343,-1.11719 -2.32031,-2.32032 z m 16.15625,8.76563 h -5.15625 v 5.24219 h 5.15625 z m 0,-1.63281 v -5.07032 h -5.15625 v 5.07032 z m 1.71875,-5.07032 v 5.07032 h 5.24219 v -5.07032 z m 5.24219,11.94532 v -5.24219 h -5.24219 v 5.24219 z m 1.97656,2.66406 h -1.97656 v -1.03125 h -12.11719 v 1.28906 h -1.97656 v -16.5 h 16.07031 z"
       id="chiyoda"
       style="font-size:22px;line-height:125%;font-family:'VL PGothic'"
       aria-label="千代田" />
    <path
       d="m 319.46667,219.01376 h 3.00782 v -1.63281 h -3.00782 z m 7.5625,0 v -1.63281 h -3.09375 v 1.63281 z m -7.5625,2.83594 h 3.00782 v -1.80469 h -3.00782 z m 4.46875,0 h 3.09375 v -1.80469 h -3.09375 z m 4.55469,0 h 3.09375 v -1.80469 h -3.09375 z m 3.09375,-4.46875 h -3.09375 v 1.63281 h 3.09375 z m -7.73437,-2.75 q 0.6875,0.0859 0.0859,0.51563 v 1.20312 h 3.09375 v -1.71875 h 1.375 q 0.6875,0.0859 0.0859,0.51563 v 1.20312 h 4.8125 v 6.53125 h -15.55469 v -6.53125 h 4.72657 v -1.71875 z m -7.64844,10.82813 v -1.375 h 18.64844 v 1.375 z m 13.32031,4.89843 -0.94531,2.0625 h 6.78906 v 1.375 H 315.8573 v -1.375 h 6.53125 l -1.03125,-2.0625 h -2.0625 v -3.69531 h 12.63281 v 3.69531 z m -8.76562,-1.03125 h 9.71093 v -1.63281 h -9.71093 z m 3.4375,3.09375 h 2.75 l 0.77343,-2.0625 h -4.38281 z m 23.11718,-15.8125 h 6.27344 v 6.61719 H 342.6698 v 1.11719 h 14.4375 v 1.375 h -14.4375 v 1.11719 h 14.17969 l -0.51563,4.98437 q -0.25781,2.66406 -2.14844,2.66406 h -2.57812 l -0.25781,-1.89062 h -10.65625 v 0.94531 h -1.71875 v -4.64062 h 1.63281 q 0.6875,0.0859 0.0859,0.51562 v 1.80469 h 3.86718 v -3.00781 h -1.80468 -1.80469 v -11.60157 h 4.55469 l 0.85937,-2.0625 1.97656,0.34375 q 0.34375,0.34375 -0.25781,0.42969 z m -1.03125,11.60157 v 3.00781 h 3.86719 v -2.23438 h 1.63281 q 0.6875,0.0859 0.0859,0.51563 v 3.09375 h 1.63281 q 0.85938,0 0.94532,-0.77344 l 0.42968,-3.60937 z m -3.60937,-6.35938 h 9.19531 v -1.20312 h -9.19531 z m 0,-2.57812 h 9.19531 v -1.28907 h -9.19531 z"
       id="toshima"
       style="font-size:22px;line-height:125%;font-family:'VL PGothic'"
       aria-label="豊島" />
    <path
       d="m 252.86786,246.60052 v -5.58593 h -5.58594 v 5.58593 z m 0,-11.17187 h 1.63281 q 0.6875,0.0859 0.0859,0.51562 v 3.4375 h 7.47656 v 9.45313 h -1.71875 v -0.60156 h -5.75781 v 6.44531 h -1.71875 v -6.44531 h -5.58594 v 1.11718 h -1.71875 v -9.96875 h 7.30469 z m 7.47656,11.17187 v -5.58593 h -5.75781 v 5.58593 z m 21.3125,1.54688 q 1.46094,-1.97656 2.14844,-3.26563 h -2.40625 v 8.50782 q 0,1.46093 -1.375,1.46093 h -1.54688 l -0.34375,-1.63281 h 1.28907 q 0.25781,0 0.25781,-0.25781 v -8.07813 h -2.83594 v -1.63281 h 7.47656 l 0.42969,-0.42969 1.375,1.20313 q 0.34375,0.34375 -0.25781,0.42969 -1.03125,2.32031 -2.75,4.64062 z m -2.49219,-9.53906 q 0.60157,0.34375 1.46094,1.03125 l 1.54688,-1.97657 h -5.24219 v -1.63281 h 6.44531 l 0.25781,-0.25781 1.28907,1.28906 q 0.34375,0.34375 -0.25782,0.42969 l -3.00781,3.00781 0.94531,0.94531 -1.20312,1.20313 q -1.63281,-1.80469 -3.26563,-3.00781 z m -2.57812,13.92187 -9.625,1.46094 q -0.0859,0.60156 -0.42969,0.25781 l -0.51562,-2.14844 4.55468,-0.34375 v -2.66406 h -3.86718 v -1.63281 h 3.86718 v -2.32031 h -1.89062 -1.89063 v -9.19532 h 9.28125 v 9.19532 h -3.78125 v 2.32031 h 3.86719 v 1.63281 h -3.86719 v 2.49219 l 4.21094,-0.51563 z m -6.01563,-15.21094 h -2.0625 v 2.57813 h 2.0625 z m 0,6.44532 v -2.49219 h -2.0625 v 2.49219 z m 3.78125,-3.86719 v -2.57813 h -2.0625 v 2.57813 z m 0,3.86719 v -2.49219 h -2.0625 v 2.49219 z"
       id="nakano"
       style="font-size:22px;line-height:125%;font-family:'VL PGothic'"
       aria-label="中野" />
    <path
       d="m 373.91199,251.98251 q -4.29688,3.69532 -8.85157,5.07032 l -0.77343,-2.0625 q 4.55468,-1.28907 8.16406,-4.38282 -3.00781,-3.26562 -4.03906,-7.5625 h -4.125 v -1.63281 h 8.25 v -3.26562 h 1.89062 q 0.85938,0.17187 0.0859,0.6875 v 2.57812 h 8.33594 v 1.63281 h -4.03907 q -0.6875,4.03907 -3.60937,7.5625 3.00781,2.66407 7.99219,3.95313 l -0.77344,2.0625 q -4.38281,-1.11719 -8.50781,-4.64063 z m -0.0859,-2.75 q 2.57812,-3.09375 3.17969,-6.1875 h -6.70313 q 0.51563,2.92188 3.52344,6.1875 z m 18.39062,3.4375 q -1.97656,2.32032 -5.15625,3.95313 l -1.03125,-1.97656 q 3.26563,-1.54688 5.15625,-3.78125 l 1.54688,1.46093 q 0.25781,0.42969 -0.51563,0.34375 z m 11.60157,3.69532 q -3.52344,-1.28907 -5.58594,-4.29688 l 1.54687,-1.20312 q 1.80469,2.40625 5.15625,3.60937 z m -7.39063,-18.64844 q 0.85938,0.17187 0.0859,0.6875 v 1.71875 h 8.59375 v 1.63281 h -18.99219 v -1.63281 h 8.42188 v -2.40625 z m 3.95313,11.85937 h -3.69532 v 6.35938 q 0,1.375 -1.375,1.375 h -2.23437 l -0.34375,-1.89063 h 1.89062 q 0.34375,0 0.34375,-0.34375 v -5.5 h -4.29687 v 0.77344 h -1.71875 v -6.96094 h 13.14844 v 6.70313 h -1.71875 z m -9.71094,-4.55468 v 2.92187 h 9.71094 v -2.92187 z"
       id="bunkyo"
       style="font-size:22px;line-height:125%;font-family:'VL PGothic'"
       aria-label="文京" />
    <path
       d="m 382.15417,362.33408 q 0.77344,0 0.94532,-0.60157 l 0.42968,-1.28906 1.71875,0.6875 -0.25781,0.94531 q -0.51562,1.89063 -1.97656,1.89063 h -6.78906 q -1.46094,0 -1.46094,-1.54688 v -4.38281 h 5.67187 v -1.375 h -5.67187 q -1.20313,1.20313 -3.00781,2.40625 l -0.6875,-1.89062 q 3.35156,-1.97657 4.72656,-4.64063 h -4.125 v -1.63281 h 3.78125 v -2.0625 h -3.00781 v -1.63281 h 3.00781 v -2.57813 h 1.63281 q 0.6875,0.0859 0.0859,0.51563 v 2.0625 h 2.66406 v -2.57813 h 1.63281 q 0.6875,0.0859 0.0859,0.51563 v 2.0625 h 3.4375 v 1.63281 h -3.4375 v 2.0625 h 4.38281 v 1.63281 h -4.03906 q 1.28906,2.23438 4.64063,3.86719 l -0.85938,1.80469 q -2.32031,-1.11719 -3.52344,-2.57813 v 4.38281 h -1.71875 v -0.34375 h -3.95312 v 1.97657 q 0,0.6875 0.60156,0.6875 z m -13.14843,-16.92969 q 1.97656,1.20312 2.75,2.14844 l -1.28907,1.71875 q -1.03125,-1.03125 -2.75,-2.32032 z m -2.32032,17.1875 q 1.71875,-3.00781 2.57813,-6.53125 l 1.46094,0.94531 q -0.60157,3.17969 -1.97657,6.44531 0.17188,1.28907 -0.60156,0.51563 z m 1.54688,-12.11719 q 2.14844,1.28906 2.75,2.14844 l -1.20313,1.80469 q -0.94531,-1.03125 -2.75,-2.32032 z m 8.9375,-1.63281 v 2.0625 h 2.66406 v -2.0625 z m 0.42969,3.69531 q -0.60157,1.28906 -1.63282,2.49219 h 5.67188 q -1.11719,-1.28906 -1.54688,-2.49219 z"
       id="minato"
       style="font-size:22px;line-height:125%;font-family:'VL PGothic'"
       aria-label="港" />
    <path
       d="m 317.09949,390.88095 h -1.71875 v -1.03125 h -9.71094 v 1.375 h -1.71875 v -18.47656 h 13.14844 z m -1.71875,-13.14844 v -3.35156 h -9.71094 v 3.35156 z m 0,5.07032 v -3.4375 h -9.71094 v 3.4375 z m 0,5.41406 v -3.78125 h -9.71094 v 3.78125 z m 12.11718,-0.60156 q -0.94531,1.80468 -2.66406,3.86718 l -1.54687,-1.28906 q 1.54687,-1.63281 2.57812,-3.60937 z m 14.78125,-1.20313 h -19.16406 v -1.63281 h 8.76563 v -1.375 h -6.96094 v -1.63281 h 6.96094 v -1.54688 h -3.17969 -3.17969 v -7.64844 h 14.17969 v 7.64844 h -6.10156 v 1.54688 h 6.78906 v 1.63281 h -6.78906 v 1.375 h 8.67968 z m -7.47656,0.34375 q 1.11719,1.80469 1.71875,3.69531 l -1.97656,0.51563 q -0.51563,-1.80469 -1.375,-3.69531 z m -3.86719,0.17188 q 0.60157,2.32031 0.60157,3.95312 l -1.97657,0.17188 q 0,-1.80469 -0.42968,-3.95313 z m 9.53907,4.125 q -1.28907,-1.89063 -3.09375,-3.26563 l 1.63281,-1.03125 q 1.63281,1.11719 3.26562,3.09375 z m -6.875,-17.10157 v 1.80469 h 4.38281 v -1.80469 z m -6.35938,1.80469 h 4.64063 v -1.80469 h -4.64063 z m 0,3.09375 h 4.64063 v -1.71875 h -4.64063 z m 6.35938,0 h 4.38281 v -1.71875 h -4.38281 z"
       id="meguro"
       style="font-size:22px;line-height:125%;font-family:'VL PGothic'"
       aria-label="目黒" />
  </g>
</svg>
